# Copyright (c) 2023 NVIDIA CORPORATION & AFFILIATES. All rights reserved.
#
# Licensed under the NVIDIA Source Code License [see LICENSE for details].

# File units = meters
mtllib nema_3-prong_socket_tray_lip.mtl
g NEMA 3-Prong Socket Tray (Top)
v 0.01275 0.01275 0.03254 
v 0.01275 0.01275 0.02936 
v 0.01275 -0.01275 0.02936 
v 0.01275 -0.01275 0.03254 
v -0.01275 0.01275 0.03254 
v -0.01275 0.01275 0.02936 
v -0.01275 -0.01275 0.02936 
v -0.01275 -0.01275 0.03254 
v -0.02 -0.02 0.02936 
v -0.02 0.02 0.02936 
v 0.02 0.02 0.02936 
v 0.02 -0.02 0.02936 
v 0.02 0.02 0.03254 
v -0.02 0.02 0.03254 
v -0.02 -0.02 0.03254 
v 0.02 -0.02 0.03254 
vn -1 -1.36057e-16 0 
vn 0 -1 0 
vn 0 1 0 
vn 1 1.36057e-16 0 
vn 0 0 -1 
vn 0 0 1 
vn 0 1 0 
vn 1 1.73472e-16 0 
vn -1 -1.73472e-16 0 
vn 0 -1 0 
usemtl 0.615686_0.811765_0.929412_0.000000_0.000000
o mesh0
f 1//1 2//1 3//1 
f 3//1 4//1 1//1 
o mesh1
f 1//2 5//2 6//2 
f 6//2 2//2 1//2 
o mesh2
f 4//3 3//3 7//3 
f 7//3 8//3 4//3 
o mesh3
f 5//4 8//4 7//4 
f 7//4 6//4 5//4 
o mesh4
f 9//5 10//5 6//5 
f 10//5 11//5 2//5 
f 2//5 6//5 10//5 
f 11//5 12//5 3//5 
f 3//5 2//5 11//5 
f 12//5 9//5 7//5 
f 7//5 3//5 12//5 
f 6//5 7//5 9//5 
o mesh5
f 13//6 14//6 5//6 
f 14//6 15//6 8//6 
f 8//6 5//6 14//6 
f 15//6 16//6 4//6 
f 4//6 8//6 15//6 
f 16//6 13//6 1//6 
f 1//6 4//6 16//6 
f 5//6 1//6 13//6 
o mesh6
f 13//7 11//7 10//7 
f 10//7 14//7 13//7 
o mesh7
f 13//8 16//8 12//8 
f 12//8 11//8 13//8 
o mesh8
f 14//9 10//9 9//9 
f 9//9 15//9 14//9 
o mesh9
f 16//10 15//10 9//10 
f 9//10 12//10 16//10 
