# Copyright (c) 2023 NVIDIA CORPORATION & AFFILIATES. All rights reserved.
#
# Licensed under the NVIDIA Source Code License [see LICENSE for details].

# File units = meters
mtllib nema_2-prong_plug_tray.mtl
g NEMA 2-Prong Plug Tray
v 0.035 0.02 0.025 
v 0.035 -0.02 0.025 
v 0.035 -0.02 0 
v 0.035 0.02 0 
v -0.035 0.02 0 
v -0.035 0.02 0.025 
v -0.035 -0.02 0 
v -0.035 -0.02 0.025 
v 0.055 -0.04 0 
v 0.055 0.04 0 
v -0.055 0.04 0 
v -0.055 -0.04 0 
v 0.055 -0.04 -0.003 
v 0.055 0.04 -0.003 
v -0.055 -0.04 -0.003 
v -0.055 0.04 -0.003 
v -0.0305 -0.0085 0.025 
v 0.0256823 0.0147785 0.025 
v 0.0259546 0.0146992 0.025 
v -0.024 0.015 0.025 
v -0.0305 0.0085 0.025 
v 0.0254069 0.0148459 0.025 
v 0.024 0.015 0.025 
v -0.0262231 0.014608 0.025 
v -0.0259546 0.0146992 0.025 
v -0.0304938 -0.00878353 0.025 
v 0.024 -0.015 0.025 
v 0.030108 0.0107231 0.025 
v 0.0301992 0.0104546 0.025 
v 0.0293245 0.0122282 0.025 
v 0.029482 0.0119924 0.025 
v 0.0287923 0.0128913 0.025 
v 0.0289793 0.0126781 0.025 
v 0.0283913 0.0132923 0.025 
v 0.0285962 0.0130962 0.025 
v 0.0262231 0.014608 0.025 
v 0.0264874 0.0145052 0.025 
v 0.0251287 0.0149013 0.025 
v 0.0245665 0.0149753 0.025 
v 0.0248484 0.0149444 0.025 
v -0.0242835 0.0149938 0.025 
v -0.0256823 0.0147785 0.025 
v -0.0254069 0.0148459 0.025 
v -0.0264874 0.0145052 0.025 
v -0.0302785 0.0101823 0.025 
v -0.0301992 0.0104546 0.025 
v -0.0304938 0.00878353 0.025 
v -0.0300052 -0.0109874 0.025 
v -0.030108 -0.0107231 0.025 
v -0.024 -0.015 0.025 
v 0.0304013 -0.00962871 0.025 
v 0.0303459 -0.00990686 0.025 
v 0.0302785 0.0101823 0.025 
v 0.0296292 0.01175 0.025 
v 0.0279569 0.0136568 0.025 
v 0.0281781 0.0134793 0.025 
v 0.0274924 0.013982 0.025 
v 0.0277282 0.0138245 0.025 
v 0.0270014 0.0142656 0.025 
v 0.02725 0.0141292 0.025 
v 0.026747 0.014391 0.025 
v 0.0242835 0.0149938 0.025 
v -0.0251287 0.0149013 0.025 
v -0.0248484 0.0149444 0.025 
v -0.0283913 0.0132923 0.025 
v -0.0281781 0.0134793 0.025 
v -0.0287923 0.0128913 0.025 
v -0.0285962 0.0130962 0.025 
v -0.0303459 0.00990686 0.025 
v -0.0304753 -0.00906651 0.025 
v -0.0304013 -0.00962871 0.025 
v -0.0304444 -0.00934842 0.025 
v -0.0302785 -0.0101823 0.025 
v -0.0303459 -0.00990686 0.025 
v -0.0301992 -0.0104546 0.025 
v 0.0242835 -0.0149938 0.025 
v 0.026747 -0.014391 0.025 
v 0.0264874 -0.0145052 0.025 
v 0.02725 -0.0141292 0.025 
v 0.0270014 -0.0142656 0.025 
v 0.0277282 -0.0138245 0.025 
v 0.0274924 -0.013982 0.025 
v 0.0304444 -0.00934842 0.025 
v 0.0304013 0.00962871 0.025 
v 0.0304444 0.00934842 0.025 
v 0.0303459 0.00990686 0.025 
v 0.029891 0.011247 0.025 
v 0.0300052 0.0109874 0.025 
v 0.0291568 0.0124569 0.025 
v -0.0245665 0.0149753 0.025 
v -0.0274924 0.013982 0.025 
v -0.02725 0.0141292 0.025 
v -0.0279569 0.0136568 0.025 
v -0.0277282 0.0138245 0.025 
v -0.0291568 0.0124569 0.025 
v -0.0289793 0.0126781 0.025 
v -0.0304013 0.00962871 0.025 
v -0.0304753 0.00906651 0.025 
v -0.0304444 0.00934842 0.025 
v -0.0242835 -0.0149938 0.025 
v 0.0251287 -0.0149013 0.025 
v 0.0248484 -0.0149444 0.025 
v 0.0256823 -0.0147785 0.025 
v 0.0254069 -0.0148459 0.025 
v 0.0262231 -0.014608 0.025 
v 0.0259546 -0.0146992 0.025 
v 0.0279569 -0.0136568 0.025 
v 0.0302785 -0.0101823 0.025 
v 0.0301992 -0.0104546 0.025 
v 0.0304753 -0.00906651 0.025 
v 0.0297656 0.0115014 0.025 
v -0.0270014 0.0142656 0.025 
v -0.026747 0.014391 0.025 
v -0.029482 0.0119924 0.025 
v -0.0293245 0.0122282 0.025 
v -0.0297656 0.0115014 0.025 
v -0.0296292 0.01175 0.025 
v -0.030108 0.0107231 0.025 
v -0.0300052 0.0109874 0.025 
v -0.0283913 -0.0132923 0.025 
v -0.0285962 -0.0130962 0.025 
v -0.0248484 -0.0149444 0.025 
v -0.0251287 -0.0149013 0.025 
v 0.0245665 -0.0149753 0.025 
v 0.0281781 -0.0134793 0.025 
v 0.0287923 -0.0128913 0.025 
v 0.0285962 -0.0130962 0.025 
v 0.0305 0.0085 0.025 
v 0.0304753 0.00906651 0.025 
v 0.0304938 0.00878353 0.025 
v -0.029891 0.011247 0.025 
v -0.0287923 -0.0128913 0.025 
v -0.0279569 -0.0136568 0.025 
v -0.0281781 -0.0134793 0.025 
v -0.0264874 -0.0145052 0.025 
v -0.026747 -0.014391 0.025 
v -0.0254069 -0.0148459 0.025 
v -0.0256823 -0.0147785 0.025 
v -0.0245665 -0.0149753 0.025 
v 0.0283913 -0.0132923 0.025 
v 0.029482 -0.0119924 0.025 
v 0.0293245 -0.0122282 0.025 
v 0.0304938 -0.00878353 0.025 
v 0.0305 -0.0085 0.025 
v -0.0289793 -0.0126781 0.025 
v -0.0291568 -0.0124569 0.025 
v -0.0262231 -0.014608 0.025 
v -0.0259546 -0.0146992 0.025 
v 0.0296292 -0.01175 0.025 
v 0.029891 -0.011247 0.025 
v 0.0297656 -0.0115014 0.025 
v 0.030108 -0.0107231 0.025 
v 0.0300052 -0.0109874 0.025 
v -0.0274924 -0.013982 0.025 
v -0.0277282 -0.0138245 0.025 
v -0.0270014 -0.0142656 0.025 
v -0.02725 -0.0141292 0.025 
v 0.0291568 -0.0124569 0.025 
v 0.0289793 -0.0126781 0.025 
v -0.0297656 -0.0115014 0.025 
v -0.029891 -0.011247 0.025 
v -0.0293245 -0.0122282 0.025 
v -0.029482 -0.0119924 0.025 
v -0.0296292 -0.01175 0.025 
v 0.0305 0.0085 0.016 
v 0.0305 -0.0085 0.016 
v 0.024 0.015 0.016 
v 0.0242835 0.0149938 0.016 
v 0.0245665 0.0149753 0.016 
v 0.0248484 0.0149444 0.016 
v 0.0251287 0.0149013 0.016 
v 0.0254069 0.0148459 0.016 
v 0.0256823 0.0147785 0.016 
v 0.0259546 0.0146992 0.016 
v 0.0262231 0.014608 0.016 
v 0.0264874 0.0145052 0.016 
v 0.026747 0.014391 0.016 
v 0.0270014 0.0142656 0.016 
v 0.02725 0.0141292 0.016 
v 0.0274924 0.013982 0.016 
v 0.0277282 0.0138245 0.016 
v 0.0279569 0.0136568 0.016 
v 0.0281781 0.0134793 0.016 
v 0.0283913 0.0132923 0.016 
v 0.0285962 0.0130962 0.016 
v 0.0287923 0.0128913 0.016 
v 0.0289793 0.0126781 0.016 
v 0.0291568 0.0124569 0.016 
v 0.0293245 0.0122282 0.016 
v 0.029482 0.0119924 0.016 
v 0.0296292 0.01175 0.016 
v 0.0297656 0.0115014 0.016 
v 0.029891 0.011247 0.016 
v 0.0300052 0.0109874 0.016 
v 0.030108 0.0107231 0.016 
v 0.0301992 0.0104546 0.016 
v 0.0302785 0.0101823 0.016 
v 0.0303459 0.00990686 0.016 
v 0.0304013 0.00962871 0.016 
v 0.0304444 0.00934842 0.016 
v 0.0304753 0.00906651 0.016 
v 0.0304938 0.00878353 0.016 
v 0.0304938 -0.00878353 0.016 
v 0.0304753 -0.00906651 0.016 
v 0.0304444 -0.00934842 0.016 
v 0.0304013 -0.00962871 0.016 
v 0.0303459 -0.00990686 0.016 
v 0.0302785 -0.0101823 0.016 
v 0.0301992 -0.0104546 0.016 
v 0.030108 -0.0107231 0.016 
v 0.0300052 -0.0109874 0.016 
v 0.029891 -0.011247 0.016 
v 0.0297656 -0.0115014 0.016 
v 0.0296292 -0.01175 0.016 
v 0.029482 -0.0119924 0.016 
v 0.0293245 -0.0122282 0.016 
v 0.0291568 -0.0124569 0.016 
v 0.0289793 -0.0126781 0.016 
v 0.0287923 -0.0128913 0.016 
v 0.0285962 -0.0130962 0.016 
v 0.0283913 -0.0132923 0.016 
v 0.0281781 -0.0134793 0.016 
v 0.0279569 -0.0136568 0.016 
v 0.0277282 -0.0138245 0.016 
v 0.0274924 -0.013982 0.016 
v 0.02725 -0.0141292 0.016 
v 0.0270014 -0.0142656 0.016 
v 0.026747 -0.014391 0.016 
v 0.0264874 -0.0145052 0.016 
v 0.0262231 -0.014608 0.016 
v 0.0259546 -0.0146992 0.016 
v 0.0256823 -0.0147785 0.016 
v 0.0254069 -0.0148459 0.016 
v 0.0251287 -0.0149013 0.016 
v 0.0248484 -0.0149444 0.016 
v 0.0245665 -0.0149753 0.016 
v 0.0242835 -0.0149938 0.016 
v 0.024 -0.015 0.016 
v -0.002 -0.015 0.016 
v -0.002 0.015 0.016 
v -0.0305 -0.0085 0.016 
v -0.0305 0.0085 0.016 
v -0.0304938 0.00878353 0.016 
v -0.0304753 0.00906651 0.016 
v -0.0304444 0.00934842 0.016 
v -0.0304013 0.00962871 0.016 
v -0.0303459 0.00990686 0.016 
v -0.0302785 0.0101823 0.016 
v -0.0301992 0.0104546 0.016 
v -0.030108 0.0107231 0.016 
v -0.0300052 0.0109874 0.016 
v -0.029891 0.011247 0.016 
v -0.0297656 0.0115014 0.016 
v -0.0296292 0.01175 0.016 
v -0.029482 0.0119924 0.016 
v -0.0293245 0.0122282 0.016 
v -0.0291568 0.0124569 0.016 
v -0.0289793 0.0126781 0.016 
v -0.0287923 0.0128913 0.016 
v -0.0285962 0.0130962 0.016 
v -0.0283913 0.0132923 0.016 
v -0.0281781 0.0134793 0.016 
v -0.0279569 0.0136568 0.016 
v -0.0277282 0.0138245 0.016 
v -0.0274924 0.013982 0.016 
v -0.02725 0.0141292 0.016 
v -0.0270014 0.0142656 0.016 
v -0.026747 0.014391 0.016 
v -0.0264874 0.0145052 0.016 
v -0.0262231 0.014608 0.016 
v -0.0259546 0.0146992 0.016 
v -0.0256823 0.0147785 0.016 
v -0.0254069 0.0148459 0.016 
v -0.0251287 0.0149013 0.016 
v -0.0248484 0.0149444 0.016 
v -0.0245665 0.0149753 0.016 
v -0.0242835 0.0149938 0.016 
v -0.024 0.015 0.016 
v -0.024 -0.015 0.016 
v -0.0242835 -0.0149938 0.016 
v -0.0245665 -0.0149753 0.016 
v -0.0248484 -0.0149444 0.016 
v -0.0251287 -0.0149013 0.016 
v -0.0254069 -0.0148459 0.016 
v -0.0256823 -0.0147785 0.016 
v -0.0259546 -0.0146992 0.016 
v -0.0262231 -0.014608 0.016 
v -0.0264874 -0.0145052 0.016 
v -0.026747 -0.014391 0.016 
v -0.0270014 -0.0142656 0.016 
v -0.02725 -0.0141292 0.016 
v -0.0274924 -0.013982 0.016 
v -0.0277282 -0.0138245 0.016 
v -0.0279569 -0.0136568 0.016 
v -0.0281781 -0.0134793 0.016 
v -0.0283913 -0.0132923 0.016 
v -0.0285962 -0.0130962 0.016 
v -0.0287923 -0.0128913 0.016 
v -0.0289793 -0.0126781 0.016 
v -0.0291568 -0.0124569 0.016 
v -0.0293245 -0.0122282 0.016 
v -0.029482 -0.0119924 0.016 
v -0.0296292 -0.01175 0.016 
v -0.0297656 -0.0115014 0.016 
v -0.029891 -0.011247 0.016 
v -0.0300052 -0.0109874 0.016 
v -0.030108 -0.0107231 0.016 
v -0.0301992 -0.0104546 0.016 
v -0.0302785 -0.0101823 0.016 
v -0.0303459 -0.00990686 0.016 
v -0.0304013 -0.00962871 0.016 
v -0.0304444 -0.00934842 0.016 
v -0.0304753 -0.00906651 0.016 
v -0.0304938 -0.00878353 0.016 
v -0.0093 0.015 0.016 
v -0.0093 -0.015 0.016 
v -0.0093 -0.015 0 
v -0.002 -0.015 0 
v -0.002 0.015 0 
v -0.0093 0.015 0 
vn 1 1.73472e-16 0 
vn 0 1 0 
vn -1 -1.73472e-16 0 
vn 0 -1 0 
vn 0 0 1 
vn 1 -1.73472e-16 0 
vn 0 -1 0 
vn -1 1.73472e-16 0 
vn 0 1 0 
vn 0 0 -1 
vn 0 0 1 
vn -1 0 0 
vn -0.0436194 -0.999048 0 
vn -6.12323e-17 -1 0 
vn -0.0871557 -0.996195 0 
vn -0.0436194 -0.999048 0 
vn -0.130526 -0.991445 0 
vn -0.0871557 -0.996195 0 
vn -0.173648 -0.984808 0 
vn -0.130526 -0.991445 0 
vn -0.21644 -0.976296 0 
vn -0.173648 -0.984808 0 
vn -0.258819 -0.965926 0 
vn -0.21644 -0.976296 0 
vn -0.300706 -0.953717 0 
vn -0.258819 -0.965926 0 
vn -0.34202 -0.939693 0 
vn -0.300706 -0.953717 0 
vn -0.382683 -0.92388 0 
vn -0.34202 -0.939693 0 
vn -0.422618 -0.906308 0 
vn -0.382683 -0.92388 0 
vn -0.461749 -0.887011 0 
vn -0.422618 -0.906308 0 
vn -0.5 -0.866025 0 
vn -0.461749 -0.887011 0 
vn -0.5373 -0.843391 0 
vn -0.5 -0.866025 0 
vn -0.573576 -0.819152 0 
vn -0.5373 -0.843391 0 
vn -0.608761 -0.793353 0 
vn -0.573576 -0.819152 0 
vn -0.642788 -0.766044 0 
vn -0.608761 -0.793353 0 
vn -0.67559 -0.737277 0 
vn -0.642788 -0.766044 0 
vn -0.707107 -0.707107 0 
vn -0.67559 -0.737277 0 
vn -0.737277 -0.67559 0 
vn -0.707107 -0.707107 0 
vn -0.766044 -0.642788 0 
vn -0.737277 -0.67559 0 
vn -0.793353 -0.608761 0 
vn -0.766044 -0.642788 0 
vn -0.819152 -0.573576 0 
vn -0.793353 -0.608761 0 
vn -0.843391 -0.5373 0 
vn -0.819152 -0.573576 0 
vn -0.866025 -0.5 0 
vn -0.843391 -0.5373 0 
vn -0.887011 -0.461749 0 
vn -0.866025 -0.5 0 
vn -0.906308 -0.422618 0 
vn -0.887011 -0.461749 0 
vn -0.92388 -0.382683 0 
vn -0.906308 -0.422618 0 
vn -0.939693 -0.34202 0 
vn -0.92388 -0.382683 0 
vn -0.953717 -0.300706 0 
vn -0.939693 -0.34202 0 
vn -0.965926 -0.258819 0 
vn -0.953717 -0.300706 0 
vn -0.976296 -0.21644 0 
vn -0.965926 -0.258819 0 
vn -0.984808 -0.173648 0 
vn -0.976296 -0.21644 0 
vn -0.991445 -0.130526 0 
vn -0.984808 -0.173648 0 
vn -0.996195 -0.0871557 0 
vn -0.991445 -0.130526 0 
vn -0.999048 -0.0436194 0 
vn -0.996195 -0.0871557 0 
vn -1 0 0 
vn -0.999048 -0.0436194 0 
vn -0.999048 0.0436194 0 
vn -1 2.44929e-16 0 
vn -0.996195 0.0871557 0 
vn -0.999048 0.0436194 0 
vn -0.991445 0.130526 0 
vn -0.996195 0.0871557 0 
vn -0.984808 0.173648 0 
vn -0.991445 0.130526 0 
vn -0.976296 0.21644 0 
vn -0.984808 0.173648 0 
vn -0.965926 0.258819 0 
vn -0.976296 0.21644 0 
vn -0.953717 0.300706 0 
vn -0.965926 0.258819 0 
vn -0.939693 0.34202 0 
vn -0.953717 0.300706 0 
vn -0.92388 0.382683 0 
vn -0.939693 0.34202 0 
vn -0.906308 0.422618 0 
vn -0.92388 0.382683 0 
vn -0.887011 0.461749 0 
vn -0.906308 0.422618 0 
vn -0.866025 0.5 0 
vn -0.887011 0.461749 0 
vn -0.843391 0.5373 0 
vn -0.866025 0.5 0 
vn -0.819152 0.573576 0 
vn -0.843391 0.5373 0 
vn -0.793353 0.608761 0 
vn -0.819152 0.573576 0 
vn -0.766044 0.642788 0 
vn -0.793353 0.608761 0 
vn -0.737277 0.67559 0 
vn -0.766044 0.642788 0 
vn -0.707107 0.707107 0 
vn -0.737277 0.67559 0 
vn -0.67559 0.737277 0 
vn -0.707107 0.707107 0 
vn -0.642788 0.766044 0 
vn -0.67559 0.737277 0 
vn -0.608761 0.793353 0 
vn -0.642788 0.766044 0 
vn -0.573576 0.819152 0 
vn -0.608761 0.793353 0 
vn -0.5373 0.843391 0 
vn -0.573576 0.819152 0 
vn -0.5 0.866025 0 
vn -0.5373 0.843391 0 
vn -0.461749 0.887011 0 
vn -0.5 0.866025 0 
vn -0.422618 0.906308 0 
vn -0.461749 0.887011 0 
vn -0.382683 0.92388 0 
vn -0.422618 0.906308 0 
vn -0.34202 0.939693 0 
vn -0.382683 0.92388 0 
vn -0.300706 0.953717 0 
vn -0.34202 0.939693 0 
vn -0.258819 0.965926 0 
vn -0.300706 0.953717 0 
vn -0.21644 0.976296 0 
vn -0.258819 0.965926 0 
vn -0.173648 0.984808 0 
vn -0.21644 0.976296 0 
vn -0.130526 0.991445 0 
vn -0.173648 0.984808 0 
vn -0.0871557 0.996195 0 
vn -0.130526 0.991445 0 
vn -0.0436194 0.999048 0 
vn -0.0871557 0.996195 0 
vn 1.83697e-16 1 0 
vn -0.0436194 0.999048 0 
vn 0 0 1 
vn 1 0 0 
vn 0.999048 -0.0436194 0 
vn 0.996195 -0.0871557 0 
vn 0.991445 -0.130526 0 
vn 0.984808 -0.173648 0 
vn 0.976296 -0.21644 0 
vn 0.965926 -0.258819 0 
vn 0.953717 -0.300706 0 
vn 0.939693 -0.34202 0 
vn 0.92388 -0.382683 0 
vn 0.906308 -0.422618 0 
vn 0.887011 -0.461749 0 
vn 0.866025 -0.5 0 
vn 0.843391 -0.5373 0 
vn 0.819152 -0.573576 0 
vn 0.793353 -0.608761 0 
vn 0.766044 -0.642788 0 
vn 0.737277 -0.67559 0 
vn 0.707107 -0.707107 0 
vn 0.67559 -0.737277 0 
vn 0.642788 -0.766044 0 
vn 0.608761 -0.793353 0 
vn 0.573576 -0.819152 0 
vn 0.5373 -0.843391 0 
vn 0.5 -0.866025 0 
vn 0.461749 -0.887011 0 
vn 0.422618 -0.906308 0 
vn 0.382683 -0.92388 0 
vn 0.34202 -0.939693 0 
vn 0.300706 -0.953717 0 
vn 0.258819 -0.965926 0 
vn 0.21644 -0.976296 0 
vn 0.173648 -0.984808 0 
vn 0.130526 -0.991445 0 
vn 0.0871557 -0.996195 0 
vn 0.0436194 -0.999048 0 
vn -6.12323e-17 -1 0 
vn 0.0436194 0.999048 0 
vn 1.83697e-16 1 0 
vn 0.0871557 0.996195 0 
vn 0.0436194 0.999048 0 
vn 0.130526 0.991445 0 
vn 0.0871557 0.996195 0 
vn 0.173648 0.984808 0 
vn 0.130526 0.991445 0 
vn 0.21644 0.976296 0 
vn 0.173648 0.984808 0 
vn 0.258819 0.965926 0 
vn 0.21644 0.976296 0 
vn 0.300706 0.953717 0 
vn 0.258819 0.965926 0 
vn 0.34202 0.939693 0 
vn 0.300706 0.953717 0 
vn 0.382683 0.92388 0 
vn 0.34202 0.939693 0 
vn 0.422618 0.906308 0 
vn 0.382683 0.92388 0 
vn 0.461749 0.887011 0 
vn 0.422618 0.906308 0 
vn 0.5 0.866025 0 
vn 0.461749 0.887011 0 
vn 0.5373 0.843391 0 
vn 0.5 0.866025 0 
vn 0.573576 0.819152 0 
vn 0.5373 0.843391 0 
vn 0.608761 0.793353 0 
vn 0.573576 0.819152 0 
vn 0.642788 0.766044 0 
vn 0.608761 0.793353 0 
vn 0.67559 0.737277 0 
vn 0.642788 0.766044 0 
vn 0.707107 0.707107 0 
vn 0.67559 0.737277 0 
vn 0.737277 0.67559 0 
vn 0.707107 0.707107 0 
vn 0.766044 0.642788 0 
vn 0.737277 0.67559 0 
vn 0.793353 0.608761 0 
vn 0.766044 0.642788 0 
vn 0.819152 0.573576 0 
vn 0.793353 0.608761 0 
vn 0.843391 0.5373 0 
vn 0.819152 0.573576 0 
vn 0.866025 0.5 0 
vn 0.843391 0.5373 0 
vn 0.887011 0.461749 0 
vn 0.866025 0.5 0 
vn 0.906308 0.422618 0 
vn 0.887011 0.461749 0 
vn 0.92388 0.382683 0 
vn 0.906308 0.422618 0 
vn 0.939693 0.34202 0 
vn 0.92388 0.382683 0 
vn 0.953717 0.300706 0 
vn 0.939693 0.34202 0 
vn 0.965926 0.258819 0 
vn 0.953717 0.300706 0 
vn 0.976296 0.21644 0 
vn 0.965926 0.258819 0 
vn 0.984808 0.173648 0 
vn 0.976296 0.21644 0 
vn 0.991445 0.130526 0 
vn 0.984808 0.173648 0 
vn 0.996195 0.0871557 0 
vn 0.991445 0.130526 0 
vn 0.999048 0.0436194 0 
vn 0.996195 0.0871557 0 
vn 1 -1.22465e-16 0 
vn 0.999048 0.0436194 0 
vn 0 0 1 
vn 0 1 0 
vn 7.22801e-17 -1 0 
vn 0 0 1 
vn 1 1.15648e-16 0 
vn -1 -5.78241e-17 0 
usemtl 0.615686_0.811765_0.929412_0.000000_0.000000
o mesh0
f 1//1 2//1 3//1 
f 3//1 4//1 1//1 
o mesh1
f 1//2 4//2 5//2 
f 5//2 6//2 1//2 
o mesh2
f 6//3 5//3 7//3 
f 7//3 8//3 6//3 
o mesh3
f 2//4 8//4 7//4 
f 7//4 3//4 2//4 
o mesh4
f 9//5 10//5 4//5 
f 10//5 11//5 5//5 
f 5//5 4//5 10//5 
f 11//5 12//5 7//5 
f 7//5 5//5 11//5 
f 12//5 9//5 3//5 
f 3//5 7//5 12//5 
f 4//5 3//5 9//5 
o mesh5
f 9//6 13//6 14//6 
f 14//6 10//6 9//6 
o mesh6
f 12//7 15//7 13//7 
f 13//7 9//7 12//7 
o mesh7
f 11//8 16//8 15//8 
f 15//8 12//8 11//8 
o mesh8
f 10//9 14//9 16//9 
f 16//9 11//9 10//9 
o mesh9
f 16//10 14//10 13//10 
f 13//10 15//10 16//10 
o mesh10
f 6//11 8//11 17//11 
f 1//11 18//11 19//11 
f 1//11 6//11 20//11 
f 17//11 21//11 6//11 
f 1//11 22//11 18//11 
f 20//11 23//11 1//11 
f 6//11 24//11 25//11 
f 8//11 26//11 17//11 
f 8//11 2//11 27//11 
f 1//11 28//11 29//11 
f 1//11 30//11 31//11 
f 1//11 32//11 33//11 
f 1//11 34//11 35//11 
f 1//11 36//11 37//11 
f 1//11 38//11 22//11 
f 1//11 39//11 40//11 
f 6//11 41//11 20//11 
f 6//11 42//11 43//11 
f 6//11 44//11 24//11 
f 6//11 45//11 46//11 
f 21//11 47//11 6//11 
f 8//11 48//11 49//11 
f 27//11 50//11 8//11 
f 2//11 51//11 52//11 
f 29//11 53//11 1//11 
f 31//11 54//11 1//11 
f 35//11 32//11 1//11 
f 1//11 55//11 56//11 
f 1//11 57//11 58//11 
f 1//11 59//11 60//11 
f 37//11 61//11 1//11 
f 40//11 38//11 1//11 
f 23//11 62//11 1//11 
f 6//11 63//11 64//11 
f 25//11 42//11 6//11 
f 6//11 65//11 66//11 
f 6//11 67//11 68//11 
f 6//11 69//11 45//11 
f 8//11 70//11 26//11 
f 8//11 71//11 72//11 
f 8//11 73//11 74//11 
f 49//11 75//11 8//11 
f 2//11 76//11 27//11 
f 2//11 77//11 78//11 
f 2//11 79//11 80//11 
f 2//11 81//11 82//11 
f 2//11 83//11 51//11 
f 1//11 84//11 85//11 
f 53//11 86//11 1//11 
f 1//11 87//11 88//11 
f 1//11 89//11 30//11 
f 56//11 34//11 1//11 
f 60//11 57//11 1//11 
f 19//11 36//11 1//11 
f 6//11 90//11 41//11 
f 43//11 63//11 6//11 
f 6//11 91//11 92//11 
f 6//11 93//11 94//11 
f 68//11 65//11 6//11 
f 6//11 95//11 96//11 
f 6//11 97//11 69//11 
f 6//11 98//11 99//11 
f 72//11 70//11 8//11 
f 75//11 73//11 8//11 
f 50//11 100//11 8//11 
f 2//11 101//11 102//11 
f 2//11 103//11 104//11 
f 2//11 105//11 106//11 
f 80//11 77//11 2//11 
f 2//11 107//11 81//11 
f 2//11 108//11 109//11 
f 2//11 110//11 83//11 
f 86//11 84//11 1//11 
f 1//11 111//11 87//11 
f 33//11 89//11 1//11 
f 61//11 59//11 1//11 
f 64//11 90//11 6//11 
f 6//11 112//11 113//11 
f 94//11 91//11 6//11 
f 96//11 67//11 6//11 
f 6//11 114//11 115//11 
f 6//11 116//11 117//11 
f 6//11 118//11 119//11 
f 99//11 97//11 6//11 
f 74//11 71//11 8//11 
f 8//11 120//11 121//11 
f 8//11 122//11 123//11 
f 2//11 124//11 76//11 
f 104//11 101//11 2//11 
f 78//11 105//11 2//11 
f 2//11 125//11 107//11 
f 2//11 126//11 127//11 
f 52//11 108//11 2//11 
f 2//11 1//11 128//11 
f 1//11 129//11 130//11 
f 88//11 28//11 1//11 
f 58//11 55//11 1//11 
f 113//11 44//11 6//11 
f 66//11 93//11 6//11 
f 117//11 114//11 6//11 
f 119//11 131//11 6//11 
f 47//11 98//11 6//11 
f 121//11 132//11 8//11 
f 8//11 133//11 134//11 
f 8//11 135//11 136//11 
f 8//11 137//11 138//11 
f 8//11 139//11 122//11 
f 102//11 124//11 2//11 
f 82//11 79//11 2//11 
f 127//11 140//11 2//11 
f 2//11 141//11 142//11 
f 2//11 143//11 110//11 
f 128//11 144//11 2//11 
f 85//11 129//11 1//11 
f 62//11 39//11 1//11 
f 115//11 95//11 6//11 
f 46//11 118//11 6//11 
f 8//11 145//11 146//11 
f 134//11 120//11 8//11 
f 8//11 147//11 135//11 
f 138//11 148//11 8//11 
f 100//11 139//11 8//11 
f 140//11 125//11 2//11 
f 2//11 149//11 141//11 
f 2//11 150//11 151//11 
f 2//11 152//11 153//11 
f 144//11 143//11 2//11 
f 54//11 111//11 1//11 
f 131//11 116//11 6//11 
f 132//11 145//11 8//11 
f 8//11 154//11 155//11 
f 8//11 156//11 157//11 
f 148//11 147//11 8//11 
f 106//11 103//11 2//11 
f 2//11 158//11 159//11 
f 151//11 149//11 2//11 
f 109//11 152//11 2//11 
f 92//11 112//11 6//11 
f 8//11 160//11 161//11 
f 8//11 162//11 163//11 
f 155//11 133//11 8//11 
f 136//11 156//11 8//11 
f 159//11 126//11 2//11 
f 153//11 150//11 2//11 
f 161//11 48//11 8//11 
f 163//11 164//11 8//11 
f 157//11 154//11 8//11 
f 142//11 158//11 2//11 
f 164//11 160//11 8//11 
f 123//11 137//11 8//11 
f 146//11 162//11 8//11 
f 130//11 128//11 1//11 
o mesh11
f 144//12 128//12 165//12 
f 165//12 166//12 144//12 
o mesh12
f 62//13 23//14 167//14 
f 39//15 62//13 168//16 
f 40//17 39//15 169//18 
f 38//19 40//17 170//20 
f 22//21 38//19 171//22 
f 18//23 22//21 172//24 
f 19//25 18//23 173//26 
f 36//27 19//25 174//28 
f 37//29 36//27 175//30 
f 61//31 37//29 176//32 
f 59//33 61//31 177//34 
f 60//35 59//33 178//36 
f 57//37 60//35 179//38 
f 58//39 57//37 180//40 
f 55//41 58//39 181//42 
f 56//43 55//41 182//44 
f 34//45 56//43 183//46 
f 35//47 34//45 184//48 
f 32//49 35//47 185//50 
f 33//51 32//49 186//52 
f 89//53 33//51 187//54 
f 30//55 89//53 188//56 
f 31//57 30//55 189//58 
f 54//59 31//57 190//60 
f 111//61 54//59 191//62 
f 87//63 111//61 192//64 
f 88//65 87//63 193//66 
f 28//67 88//65 194//68 
f 29//69 28//67 195//70 
f 53//71 29//69 196//72 
f 86//73 53//71 197//74 
f 84//75 86//73 198//76 
f 85//77 84//75 199//78 
f 129//79 85//77 200//80 
f 130//81 129//79 201//82 
f 128//83 130//81 202//84 
f 202//84 165//83 128//83 
f 201//82 202//84 130//81 
f 200//80 201//82 129//79 
f 199//78 200//80 85//77 
f 198//76 199//78 84//75 
f 197//74 198//76 86//73 
f 196//72 197//74 53//71 
f 195//70 196//72 29//69 
f 194//68 195//70 28//67 
f 193//66 194//68 88//65 
f 192//64 193//66 87//63 
f 191//62 192//64 111//61 
f 190//60 191//62 54//59 
f 189//58 190//60 31//57 
f 188//56 189//58 30//55 
f 187//54 188//56 89//53 
f 186//52 187//54 33//51 
f 185//50 186//52 32//49 
f 184//48 185//50 35//47 
f 183//46 184//48 34//45 
f 182//44 183//46 56//43 
f 181//42 182//44 55//41 
f 180//40 181//42 58//39 
f 179//38 180//40 57//37 
f 178//36 179//38 60//35 
f 177//34 178//36 59//33 
f 176//32 177//34 61//31 
f 175//30 176//32 37//29 
f 174//28 175//30 36//27 
f 173//26 174//28 19//25 
f 172//24 173//26 18//23 
f 171//22 172//24 22//21 
f 170//20 171//22 38//19 
f 169//18 170//20 40//17 
f 168//16 169//18 39//15 
f 167//14 168//16 62//13 
o mesh13
f 143//85 144//86 166//86 
f 110//87 143//85 203//88 
f 83//89 110//87 204//90 
f 51//91 83//89 205//92 
f 52//93 51//91 206//94 
f 108//95 52//93 207//96 
f 109//97 108//95 208//98 
f 152//99 109//97 209//100 
f 153//101 152//99 210//102 
f 150//103 153//101 211//104 
f 151//105 150//103 212//106 
f 149//107 151//105 213//108 
f 141//109 149//107 214//110 
f 142//111 141//109 215//112 
f 158//113 142//111 216//114 
f 159//115 158//113 217//116 
f 126//117 159//115 218//118 
f 127//119 126//117 219//120 
f 140//121 127//119 220//122 
f 125//123 140//121 221//124 
f 107//125 125//123 222//126 
f 81//127 107//125 223//128 
f 82//129 81//127 224//130 
f 79//131 82//129 225//132 
f 80//133 79//131 226//134 
f 77//135 80//133 227//136 
f 78//137 77//135 228//138 
f 105//139 78//137 229//140 
f 106//141 105//139 230//142 
f 103//143 106//141 231//144 
f 104//145 103//143 232//146 
f 101//147 104//145 233//148 
f 102//149 101//147 234//150 
f 124//151 102//149 235//152 
f 76//153 124//151 236//154 
f 27//155 76//153 237//156 
f 237//156 238//155 27//155 
f 236//154 237//156 76//153 
f 235//152 236//154 124//151 
f 234//150 235//152 102//149 
f 233//148 234//150 101//147 
f 232//146 233//148 104//145 
f 231//144 232//146 103//143 
f 230//142 231//144 106//141 
f 229//140 230//142 105//139 
f 228//138 229//140 78//137 
f 227//136 228//138 77//135 
f 226//134 227//136 80//133 
f 225//132 226//134 79//131 
f 224//130 225//132 82//129 
f 223//128 224//130 81//127 
f 222//126 223//128 107//125 
f 221//124 222//126 125//123 
f 220//122 221//124 140//121 
f 219//120 220//122 127//119 
f 218//118 219//120 126//117 
f 217//116 218//118 159//115 
f 216//114 217//116 158//113 
f 215//112 216//114 142//111 
f 214//110 215//112 141//109 
f 213//108 214//110 149//107 
f 212//106 213//108 151//105 
f 211//104 212//106 150//103 
f 210//102 211//104 153//101 
f 209//100 210//102 152//99 
f 208//98 209//100 109//97 
f 207//96 208//98 108//95 
f 206//94 207//96 52//93 
f 205//92 206//94 51//91 
f 204//90 205//92 83//89 
f 203//88 204//90 110//87 
f 166//86 203//88 143//85 
o mesh14
f 165//157 172//157 171//157 
f 200//157 199//157 198//157 
f 221//157 224//157 223//157 
f 165//157 173//157 172//157 
f 165//157 179//157 178//157 
f 165//157 189//157 188//157 
f 165//157 193//157 192//157 
f 200//157 196//157 195//157 
f 198//157 197//157 200//157 
f 194//157 202//157 201//157 
f 238//157 204//157 203//157 
f 221//157 225//157 224//157 
f 220//157 227//157 226//157 
f 220//157 229//157 228//157 
f 165//157 174//157 173//157 
f 165//157 176//157 175//157 
f 178//157 177//157 165//157 
f 165//157 181//157 180//157 
f 165//157 183//157 182//157 
f 165//157 185//157 184//157 
f 165//157 187//157 186//157 
f 165//157 190//157 189//157 
f 165//157 194//157 193//157 
f 197//157 196//157 200//157 
f 194//157 165//157 202//157 
f 238//157 205//157 204//157 
f 238//157 215//157 214//157 
f 223//157 222//157 221//157 
f 228//157 227//157 220//157 
f 220//157 231//157 230//157 
f 220//157 233//157 232//157 
f 165//157 170//157 169//157 
f 175//157 174//157 165//157 
f 180//157 179//157 165//157 
f 184//157 183//157 165//157 
f 188//157 187//157 165//157 
f 192//157 191//157 165//157 
f 201//157 200//157 194//157 
f 238//157 206//157 205//157 
f 238//157 209//157 208//157 
f 238//157 211//157 210//157 
f 238//157 216//157 215//157 
f 238//157 218//157 217//157 
f 226//157 225//157 220//157 
f 232//157 231//157 220//157 
f 218//157 237//157 236//157 
f 169//157 168//157 165//157 
f 177//157 176//157 165//157 
f 186//157 185//157 165//157 
f 195//157 194//157 200//157 
f 238//157 207//157 206//157 
f 210//157 209//157 238//157 
f 238//157 213//157 212//157 
f 217//157 216//157 238//157 
f 233//157 220//157 219//157 
f 230//157 229//157 220//157 
f 218//157 235//157 234//157 
f 218//157 238//157 237//157 
f 171//157 170//157 165//157 
f 191//157 190//157 165//157 
f 208//157 207//157 238//157 
f 214//157 213//157 238//157 
f 221//157 220//157 225//157 
f 236//157 235//157 218//157 
f 182//157 181//157 165//157 
f 167//157 238//157 166//157 
f 212//157 211//157 238//157 
f 234//157 233//157 218//157 
f 166//157 165//157 167//157 
f 219//157 218//157 233//157 
f 203//157 166//157 238//157 
f 239//157 238//157 167//157 
f 167//157 240//157 239//157 
f 168//157 167//157 165//157 
o mesh15
f 21//158 17//158 241//158 
f 241//158 242//158 21//158 
o mesh16
f 47//159 21//158 242//158 
f 98//160 47//159 243//159 
f 99//161 98//160 244//160 
f 97//162 99//161 245//161 
f 69//163 97//162 246//162 
f 45//164 69//163 247//163 
f 46//165 45//164 248//164 
f 118//166 46//165 249//165 
f 119//167 118//166 250//166 
f 131//168 119//167 251//167 
f 116//169 131//168 252//168 
f 117//170 116//169 253//169 
f 114//171 117//170 254//170 
f 115//172 114//171 255//171 
f 95//173 115//172 256//172 
f 96//174 95//173 257//173 
f 67//175 96//174 258//174 
f 68//176 67//175 259//175 
f 65//177 68//176 260//176 
f 66//178 65//177 261//177 
f 93//179 66//178 262//178 
f 94//180 93//179 263//179 
f 91//181 94//180 264//180 
f 92//182 91//181 265//181 
f 112//183 92//182 266//182 
f 113//184 112//183 267//183 
f 44//185 113//184 268//184 
f 24//186 44//185 269//185 
f 25//187 24//186 270//186 
f 42//188 25//187 271//187 
f 43//189 42//188 272//188 
f 63//190 43//189 273//189 
f 64//191 63//190 274//190 
f 90//192 64//191 275//191 
f 41//193 90//192 276//192 
f 20//194 41//193 277//193 
f 277//193 278//194 20//194 
f 276//192 277//193 41//193 
f 275//191 276//192 90//192 
f 274//190 275//191 64//191 
f 273//189 274//190 63//190 
f 272//188 273//189 43//189 
f 271//187 272//188 42//188 
f 270//186 271//187 25//187 
f 269//185 270//186 24//186 
f 268//184 269//185 44//185 
f 267//183 268//184 113//184 
f 266//182 267//183 112//183 
f 265//181 266//182 92//182 
f 264//180 265//181 91//181 
f 263//179 264//180 94//180 
f 262//178 263//179 93//179 
f 261//177 262//178 66//178 
f 260//176 261//177 65//177 
f 259//175 260//176 68//176 
f 258//174 259//175 67//175 
f 257//173 258//174 96//174 
f 256//172 257//173 95//173 
f 255//171 256//172 115//172 
f 254//170 255//171 114//171 
f 253//169 254//170 117//170 
f 252//168 253//169 116//169 
f 251//167 252//168 131//168 
f 250//166 251//167 119//167 
f 249//165 250//166 118//166 
f 248//164 249//165 46//165 
f 247//163 248//164 45//164 
f 246//162 247//163 69//163 
f 245//161 246//162 97//162 
f 244//160 245//161 99//161 
f 243//159 244//160 98//160 
f 242//158 243//159 47//159 
o mesh17
f 100//195 50//196 279//196 
f 139//197 100//195 280//198 
f 122//199 139//197 281//200 
f 123//201 122//199 282//202 
f 137//203 123//201 283//204 
f 138//205 137//203 284//206 
f 148//207 138//205 285//208 
f 147//209 148//207 286//210 
f 135//211 147//209 287//212 
f 136//213 135//211 288//214 
f 156//215 136//213 289//216 
f 157//217 156//215 290//218 
f 154//219 157//217 291//220 
f 155//221 154//219 292//222 
f 133//223 155//221 293//224 
f 134//225 133//223 294//226 
f 120//227 134//225 295//228 
f 121//229 120//227 296//230 
f 132//231 121//229 297//232 
f 145//233 132//231 298//234 
f 146//235 145//233 299//236 
f 162//237 146//235 300//238 
f 163//239 162//237 301//240 
f 164//241 163//239 302//242 
f 160//243 164//241 303//244 
f 161//245 160//243 304//246 
f 48//247 161//245 305//248 
f 49//249 48//247 306//250 
f 75//251 49//249 307//252 
f 73//253 75//251 308//254 
f 74//255 73//253 309//256 
f 71//257 74//255 310//258 
f 72//259 71//257 311//260 
f 70//261 72//259 312//262 
f 26//263 70//261 313//264 
f 17//265 26//263 314//266 
f 314//266 241//265 17//265 
f 313//264 314//266 26//263 
f 312//262 313//264 70//261 
f 311//260 312//262 72//259 
f 310//258 311//260 71//257 
f 309//256 310//258 74//255 
f 308//254 309//256 73//253 
f 307//252 308//254 75//251 
f 306//250 307//252 49//249 
f 305//248 306//250 48//247 
f 304//246 305//248 161//245 
f 303//244 304//246 160//243 
f 302//242 303//244 164//241 
f 301//240 302//242 163//239 
f 300//238 301//240 162//237 
f 299//236 300//238 146//235 
f 298//234 299//236 145//233 
f 297//232 298//234 132//231 
f 296//230 297//232 121//229 
f 295//228 296//230 120//227 
f 294//226 295//228 134//225 
f 293//224 294//226 133//223 
f 292//222 293//224 155//221 
f 291//220 292//222 154//219 
f 290//218 291//220 157//217 
f 289//216 290//218 156//215 
f 288//214 289//216 136//213 
f 287//212 288//214 135//211 
f 286//210 287//212 147//209 
f 285//208 286//210 148//207 
f 284//206 285//208 138//205 
f 283//204 284//206 137//203 
f 282//202 283//204 123//201 
f 281//200 282//202 122//199 
f 280//198 281//200 139//197 
f 279//196 280//198 100//195 
o mesh18
f 300//267 288//267 287//267 
f 300//267 282//267 281//267 
f 287//267 286//267 300//267 
f 300//267 293//267 292//267 
f 300//267 295//267 294//267 
f 300//267 297//267 296//267 
f 300//267 299//267 298//267 
f 279//267 310//267 309//267 
f 279//267 312//267 311//267 
f 264//267 254//267 253//267 
f 264//267 258//267 257//267 
f 264//267 260//267 259//267 
f 264//267 262//267 261//267 
f 281//267 280//267 300//267 
f 300//267 289//267 288//267 
f 300//267 291//267 290//267 
f 294//267 293//267 300//267 
f 298//267 297//267 300//267 
f 311//267 310//267 279//267 
f 279//267 314//267 313//267 
f 253//267 252//267 264//267 
f 264//267 256//267 255//267 
f 259//267 258//267 264//267 
f 264//267 263//267 262//267 
f 300//267 283//267 282//267 
f 300//267 285//267 284//267 
f 290//267 289//267 300//267 
f 296//267 295//267 300//267 
f 309//267 308//267 279//267 
f 279//267 241//267 314//267 
f 278//267 247//267 246//267 
f 255//267 254//267 264//267 
f 261//267 260//267 264//267 
f 251//267 273//267 272//267 
f 251//267 275//267 274//267 
f 251//267 277//267 276//267 
f 284//267 283//267 300//267 
f 292//267 291//267 300//267 
f 279//267 305//267 304//267 
f 279//267 307//267 306//267 
f 313//267 312//267 279//267 
f 278//267 248//267 247//267 
f 257//267 256//267 264//267 
f 251//267 266//267 265//267 
f 251//267 270//267 269//267 
f 274//267 273//267 251//267 
f 251//267 278//267 277//267 
f 286//267 285//267 300//267 
f 279//267 302//267 301//267 
f 304//267 303//267 279//267 
f 308//267 307//267 279//267 
f 278//267 245//267 244//267 
f 278//267 249//267 248//267 
f 278//267 251//267 250//267 
f 265//267 264//267 251//267 
f 251//267 268//267 267//267 
f 251//267 271//267 270//267 
f 276//267 275//267 251//267 
f 301//267 300//267 279//267 
f 306//267 305//267 279//267 
f 244//267 243//267 278//267 
f 250//267 249//267 278//267 
f 267//267 266//267 251//267 
f 272//267 271//267 251//267 
f 303//267 302//267 279//267 
f 279//267 278//267 242//267 
f 246//267 245//267 278//267 
f 269//267 268//267 251//267 
f 242//267 241//267 279//267 
f 252//267 251//267 264//267 
f 243//267 242//267 278//267 
f 315//267 278//267 279//267 
f 279//267 316//267 315//267 
f 280//267 279//267 300//267 
o mesh19
f 50//268 239//268 316//268 
f 317//268 316//268 239//268 
f 239//268 318//268 317//268 
f 27//268 238//268 239//268 
f 239//268 50//268 27//268 
f 316//268 279//268 50//268 
o mesh20
f 319//269 240//269 315//269 
f 20//269 278//269 315//269 
f 23//269 20//269 240//269 
f 315//269 240//269 20//269 
f 315//269 320//269 319//269 
f 240//269 167//269 23//269 
o mesh21
f 317//270 318//270 319//270 
f 319//270 320//270 317//270 
o mesh22
f 316//271 317//271 320//271 
f 320//271 315//271 316//271 
o mesh23
f 240//272 319//272 318//272 
f 318//272 239//272 240//272 
