# Copyright (c) 2023 NVIDIA CORPORATION & AFFILIATES. All rights reserved.
#
# Licensed under the NVIDIA Source Code License [see LICENSE for details].

# File units = meters
mtllib nema_3-prong_plug_tray.mtl
g NEMA 3-Prong Plug Tray
v 0.008 0.00975 0 
v 0.008 0.00975 -0.026 
v 0.008 -0.00975 -0.026 
v 0.008 -0.00975 0 
v -0.008 0.00975 0 
v -0.008 0.00975 -0.026 
v -0.008 -0.00975 0 
v -0.008 -0.00975 -0.026 
v 0.0175 0.0175 0 
v -0.0175 0.0175 0 
v -0.0175 -0.0175 0 
v 0.0175 -0.0175 0 
v 0.0175 -0.0175 -0.026 
v 0.0175 0.0175 -0.026 
v -0.0175 -0.0175 -0.026 
v -0.0175 0.0175 -0.026 
v 0.0325 0.0325 -0.026 
v -0.0325 0.0325 -0.026 
v -0.0325 -0.0325 -0.026 
v 0.0325 -0.0325 -0.026 
v -0.0325 0.0325 -0.029 
v 0.0325 0.0325 -0.029 
v 0.0325 -0.0325 -0.029 
v -0.0325 -0.0325 -0.029 
vn -1 0 0 
vn -2.1684e-16 -1 0 
vn -1.0842e-16 1 0 
vn 1 0 0 
vn 0 0 1 
vn -1.98254e-16 -1 0 
vn 9.91271e-17 1 0 
vn -1 1.98254e-16 0 
vn 0 0 1 
vn 0 1 0 
vn 0 0 -1 
vn -1 0 0 
vn 0 -1 0 
vn 1 0 0 
usemtl 0.615686_0.811765_0.929412_0.000000_0.000000
o mesh0
f 1//1 2//1 3//1 
f 3//1 4//1 1//1 
o mesh1
f 5//2 6//2 2//2 
f 2//2 1//2 5//2 
o mesh2
f 7//3 4//3 3//3 
f 3//3 8//3 7//3 
o mesh3
f 5//4 7//4 8//4 
f 8//4 6//4 5//4 
o mesh4
f 6//5 8//5 3//5 
f 3//5 2//5 6//5 
o mesh5
f 9//5 10//5 5//5 
f 10//5 11//5 7//5 
f 11//5 12//5 4//5 
f 12//5 9//5 1//5 
f 7//5 5//5 10//5 
f 1//5 4//5 12//5 
f 4//5 7//5 11//5 
f 5//5 1//5 9//5 
o mesh6
f 12//4 13//4 14//4 
f 14//4 9//4 12//4 
o mesh7
f 11//6 15//6 13//6 
f 13//6 12//6 11//6 
o mesh8
f 10//7 9//7 14//7 
f 14//7 16//7 10//7 
o mesh9
f 11//8 10//8 16//8 
f 16//8 15//8 11//8 
o mesh10
f 17//9 18//9 16//9 
f 18//9 19//9 15//9 
f 15//9 16//9 18//9 
f 19//9 20//9 13//9 
f 13//9 15//9 19//9 
f 20//9 17//9 14//9 
f 14//9 13//9 20//9 
f 16//9 14//9 17//9 
o mesh11
f 21//10 18//10 17//10 
f 17//10 22//10 21//10 
o mesh12
f 21//11 22//11 23//11 
f 23//11 24//11 21//11 
o mesh13
f 24//12 19//12 18//12 
f 18//12 21//12 24//12 
o mesh14
f 23//13 20//13 19//13 
f 19//13 24//13 23//13 
o mesh15
f 22//14 17//14 20//14 
f 20//14 23//14 22//14 
